<?xml version="1.0" encoding="UTF-8"?>
<svg id="Layer_2" data-name="Layer 2" xmlns="http://www.w3.org/2000/svg" viewBox="0 0 512 512">
  <defs>
    <style>
      .cls-1 {
        fill: #fff;
      }

      .cls-2 {
        fill: #e51670;
      }
    </style>
  </defs>
  <g id="Layer_1-2" data-name="Layer 1">
    <path class="cls-2" d="m0,0h439c40.29,0,73,32.71,73,73v439H73c-40.29,0-73-32.71-73-73V0h0Z"/>
    <g>
      <path class="cls-1" d="m128.31,54.43c10.67,0,21.79-.03,32.91.07.77,0,1.67.8,2.27,1.51,29.35,34.73,58.68,69.5,88.01,104.26,3.37,3.99,3.3,3.89,6.63-.09,15.53-18.57,31.11-37.08,46.66-55.62,6.32-7.53,12.52-15.2,18.96-22.59,7.16-8.22,14.57-16.12,21.75-24.3,1.95-2.23,3.91-3.38,6.68-3.33,8.51.17,17.01.06,25.52.06,1.23,0,2.47,0,3.7,0,.17.35.34.69.51,1.04-36.37,43.07-72.74,86.13-109.35,129.5,3.96,4.87,7.64,9.5,11.5,13.92.39.45,2.18,0,2.76-.7,33.68-40,67.29-80.09,100.95-120.12,6-7.14,12.16-14.09,18.38-20.96,1.18-1.3,2.98-2.5,4.52-2.53,10.23-.2,20.46-.08,30.69-.03.3,0,.59.27.85.39-46.51,55.12-92.98,110.18-139.76,165.63,4.35,5.23,8.15,9.91,12.12,14.37.35.4,2.11-.25,2.73-.99,30.27-35.96,60.48-71.98,90.72-107.99,15.48-18.44,30.99-36.84,46.51-55.24,1.07-1.27,2.32-2.31,4.16-4.11v378.61C348.89,315.35,238.61,184.9,128.31,54.43Zm305.71,322.46v-239.18c-6.07,7.05-11.66,13.43-17.07,20-.73.89-.8,2.79-.8,4.22-.04,62.71-.05,125.42.02,188.13,0,1.93.3,4.38,1.3,5.72,5.22,6.99,10.7,13.71,16.56,21.11Zm-42.84-50.94v-137.31c-.68.37-1.16.47-1.43.81-5.01,5.99-10.07,11.92-14.92,18.09-.96,1.23-1.47,3.41-1.48,5.16-.07,28.83-.08,57.66.08,86.49.01,2.39.78,5.31,2.08,7.06,4.82,6.52,10,12.65,15.67,19.7Zm-42.58-86.3c-.46-.31-.92-.62-1.37-.94-4.15,5.22-8.28,10.47-12.46,15.66-1.39,1.73-.93,2.94.34,4.43,2.93,3.44,5.73,7.03,8.56,10.58,1.5,1.88,2.95,3.8,4.93,6.34v-36.07Z"/>
      <path class="cls-1" d="m53.33,69.09c109.99,130.41,219.4,260.14,329.18,390.3-5.44,0-10.56,0-15.69,0-4.14,0-8.3-.34-12.41.09-4.46.46-7.53-1.66-10.56-5.28-27.97-33.3-56.05-66.47-84.09-99.67-5.07-6-4.92-5.83-9.72.17-6.48,8.1-13.2,15.93-19.86,23.83-22.1,26.19-44.21,52.37-66.35,78.52-.83.98-2.01,2.21-3.03,2.22-11.01.16-22.03.1-33.95.1,1.41-1.93,2.25-3.26,3.24-4.42,22.79-26.92,45.56-53.85,68.39-80.72,11.98-14.11,24-28.18,36.14-42.09,2.5-2.87,2.71-4.81.05-7.52-2.78-2.83-5.3-6.04-7.95-9.05-1.48-1.67-2.67-1.78-4.33.2-39.55,47.11-79.16,94.16-118.8,141.17-.9,1.07-2.24,2.31-3.38,2.33-11.01.18-22.03.1-33.99.1,1.76-2.33,2.93-4.04,4.23-5.59,38.28-45.35,76.56-90.69,114.87-135.99,6.34-7.5,12.83-14.84,19.35-22.12,2.03-2.26,2.27-4.04.14-6.35-2.79-3.03-5.42-6.27-8.14-9.4-1.64-1.88-2.92-2.18-4.86.13-44.75,53.28-89.59,106.45-134.41,159.64-1.1,1.31-2.26,2.56-4.08,4.61V69.09Zm24.06,70.62v233.86c1.64-1.64,2.62-2.49,3.48-3.51,3.9-4.62,7.68-9.38,11.67-13.89,2.16-2.44,3-5.08,2.99-8.65-.1-41.78-.12-83.57-.05-125.35.03-19.99.32-39.98.39-59.97,0-1.16-.7-2.58-1.43-3.45-4.62-5.5-9.32-10.9-14.04-16.29-.85-.97-1.87-1.72-3.02-2.75Zm43.03,183.2c1.85-1.94,2.92-2.93,3.87-4.06,3.88-4.64,7.65-9.41,11.62-13.94,1.8-2.06,2.48-4.21,2.47-7.18-.09-27.76-.02-55.52-.13-83.28,0-1.95-.74-4.36-1.84-5.77-4.3-5.48-8.87-10.66-13.39-15.89-.57-.66-1.43-.96-2.6-1.71v131.83Zm42.47-51.2c1.3-.98,2.12-1.4,2.73-2.08,3.07-3.45,6.03-7.04,9.15-10.43,1.81-1.97,1.57-3.61-.04-5.44-3.3-3.75-6.56-7.56-9.89-11.28-.5-.56-1.28-.78-1.96-1.17v30.4Z"/>
      <path class="cls-1" d="m442.27,459.39c-7.55,0-15.5-.6-23.34.17-7.59.75-12.9-2.53-18.13-8.77-34-40.59-68.26-80.87-102.41-121.28-51.54-61.01-103.06-122.06-154.59-183.08-20.24-23.97-40.52-47.88-60.72-71.9-5.26-6.25-10.29-12.78-15.93-19.81,1.47-.12,2.5-.28,3.53-.29,9.31-.02,18.63-.13,27.94.09,1.58.04,3.5,1.11,4.64,2.46,109.78,129.71,219.5,259.49,329.18,389.31,3.47,4.1,6.53,8.68,9.84,13.11Z"/>
    </g>
  </g>
</svg>