<?xml version="1.0" encoding="UTF-8"?>
<svg id="Layer_2" data-name="Layer 2" xmlns="http://www.w3.org/2000/svg" viewBox="0 0 512 512">
  <defs>
    <style>
      .cls-1 {
        fill: #fff;
      }

      .cls-2 {
        fill: #e51670;
      }
    </style>
  </defs>
  <g id="Layer_1-2" data-name="Layer 1">
    <rect class="cls-2" width="512" height="512" rx="70.5" ry="70.5"/>
    <g>
      <path class="cls-1" d="m141.83,76.58c9.54,0,19.48-.03,29.42.06.68,0,1.49.71,2.03,1.34,26.25,30.94,52.47,61.9,78.69,92.86,3.01,3.56,2.95,3.47,5.93-.08,13.89-16.54,27.82-33.03,41.72-49.54,5.65-6.71,11.2-13.54,16.95-20.12,6.4-7.32,13.03-14.35,19.45-21.65,1.74-1.98,3.5-3.01,5.98-2.96,7.6.15,15.21.06,22.82.06,1.52,0,3.03,0,4.55,0-32.78,38.67-65.56,77.33-98.56,116.26,3.54,4.33,6.83,8.46,10.28,12.4.35.4,1.95,0,2.47-.62,30.12-35.63,60.16-71.33,90.26-106.98,5.37-6.35,10.87-12.55,16.43-18.67,1.05-1.16,2.67-2.23,4.04-2.25,9.14-.18,18.29-.07,27.44-.03.27,0,.53.24.76.35-41.59,49.09-83.13,98.13-124.96,147.51,3.89,4.66,7.29,8.82,10.83,12.79.32.35,1.88-.22,2.44-.88,27.07-32.02,54.08-64.11,81.11-96.17,13.84-16.42,27.71-32.81,41.59-49.19.96-1.13,2.08-2.06,3.72-3.66v337.2L141.83,76.58Zm273.34,287.19v-213.02c-5.42,6.28-10.42,11.96-15.26,17.81-.65.79-.72,2.48-.72,3.76-.03,55.85-.04,111.7.01,167.56,0,1.72.27,3.9,1.16,5.09,4.66,6.23,9.57,12.21,14.81,18.8Zm-38.3-45.37v-122.29c-.61.33-1.03.42-1.28.72-4.48,5.34-9.01,10.62-13.34,16.12-.86,1.09-1.32,3.04-1.32,4.59-.06,25.68-.07,51.35.07,77.03.01,2.13.7,4.72,1.86,6.29,4.31,5.8,8.94,11.27,14.01,17.55Zm-38.07-79.23c-4.12,5.16-8.22,10.36-12.37,15.49-1.24,1.54-.83,2.61.31,3.94,2.62,3.06,5.12,6.26,7.66,9.42,1.34,1.67,2.64,3.38,4.4,5.65v-34.5Z"/>
      <path class="cls-1" d="m74.79,89.64l294.33,347.61c-4.86,0-9.45,0-14.03,0-3.7,0-7.42-.3-11.1.08-3.99.41-6.73-1.48-9.44-4.7-25.01-29.66-50.11-59.2-75.19-88.77-4.53-5.34-4.4-5.19-8.69.15-5.8,7.21-11.8,14.19-17.76,21.22-19.76,23.33-39.53,46.65-59.33,69.93-.74.88-1.79,1.96-2.71,1.98-9.85.14-19.69.09-30.35.09,1.26-1.72,2.02-2.9,2.89-3.94,20.37-23.98,40.74-47.96,61.15-71.89,11.8-13.83,23.63-27.63,35.61-41.24-3.89-3.07-7-7.21-10.36-11.01-1.32-1.49-2.38-1.59-3.87.18-35.36,41.96-70.78,83.86-106.22,125.73-.81.96-2,2.06-3.03,2.07-9.85.16-19.7.09-30.39.09,1.57-2.07,2.62-3.6,3.79-4.97,34.23-40.39,68.45-80.77,102.71-121.12,5.67-6.68,11.47-13.22,17.3-19.7,1.82-2.02,2.03-3.6.13-5.65-2.5-2.7-4.85-5.59-7.28-8.37-1.47-1.68-2.61-1.94-4.35.11-40.01,47.45-80.1,94.81-120.18,142.18-.99,1.17-2.02,2.28-3.65,4.1V89.64Zm21.51,62.89v208.28c1.46-1.46,2.35-2.22,3.11-3.12,3.49-4.11,6.87-8.36,10.43-12.37,1.93-2.17,2.68-4.53,2.67-7.7-.09-37.21-.11-74.43-.05-111.64.03-17.8.29-35.6.35-53.41,0-1.04-.62-2.3-1.28-3.08-4.13-4.9-8.33-9.71-12.55-14.51-.76-.86-1.67-1.53-2.7-2.45Zm38.47,163.16c1.66-1.73,2.61-2.61,3.46-3.62,3.47-4.13,6.84-8.38,10.39-12.41,1.61-1.83,2.22-3.75,2.21-6.4-.08-24.72-.01-49.45-.12-74.17,0-1.74-.66-3.88-1.65-5.14-3.84-4.88-7.93-9.49-11.97-14.15-.51-.58-1.28-.85-2.33-1.52v117.41Zm37.97-45.6c1.16-.87,1.89-1.25,2.44-1.86,2.75-3.07,5.4-6.27,8.18-9.29,1.62-1.76,1.4-3.22-.04-4.84-2.95-3.34-5.86-6.73-8.84-10.05-.45-.5-1.15-.69-1.75-1.04v27.08Z"/>
      <path class="cls-1" d="m422.55,437.25c-6.75,0-13.86-.53-20.87.15-6.79.67-11.54-2.26-16.21-7.81-30.4-36.15-61.03-72.02-91.57-108.02-46.09-54.34-92.15-108.71-138.23-163.06-18.1-21.35-36.23-42.65-54.29-64.03-4.7-5.57-9.2-11.38-14.25-17.65,1.32-.11,2.24-.25,3.15-.25,8.33-.02,16.65-.12,24.98.08,1.41.03,3.13.99,4.15,2.19,98.15,115.52,196.26,231.11,294.33,346.73,3.1,3.65,5.84,7.73,8.8,11.67Z"/>
    </g>
  </g>
</svg>